<?xml version="1.0" encoding="utf-8"?>
<!-- Generator: Adobe Illustrator 25.3.1, SVG Export Plug-In . SVG Version: 6.00 Build 0)  -->
<svg version="1.1" id="Layer_1" xmlns="http://www.w3.org/2000/svg" xmlns:xlink="http://www.w3.org/1999/xlink" x="0px" y="0px"
	 viewBox="0 0 1679 400" style="enable-background:new 0 0 1679 400;" xml:space="preserve">
<style type="text/css">
	.st0{fill:#FFFFFF;}
</style>
<path class="st0" d="M675,12.8h-39.6L503.3,313.9h53.8l28.8-66.7h99l-16.8-44.7h-63.2L654.3,88l98.1,225.8h36.4l-0.7-43L675,12.8z"
	/>
<path class="st0" d="M1016.8,152.8c-5-13.9-12.3-25.9-21.7-35.9c-9.5-10-20.9-17.9-34.4-23.4C947.2,87.8,932.3,85,916,85
	c-1.5,0-2.9,0-4.3,0.1c-0.2,0-0.4,0-0.6,0c-88.8,3.3-105.5,76.8-106.1,100.6v214.1h49V299.2c4.9,5.8,12.7,10.3,23.4,13.5
	c10.8,3.3,22.4,4.9,35.1,4.9c16.3,0,31.5-3,45.4-9c13.9-6,25.8-14.4,35.7-25.2c9.9-10.8,17.5-23.5,22.8-38.3c5.3-14.8,8-30.4,8-47.1
	C1024.4,181.8,1021.9,166.7,1016.8,152.8z M955.1,252.8c-12.3,12.9-28.4,19.4-48.2,19.4c-11.2,0-21.5-2.4-31-7.3
	c-9.5-4.9-16.8-11.6-21.9-20.2V185c0-17.2,7.9-33.6,21.9-43.7c0.1-0.1,0.2-0.1,0.3-0.2c9.9-7,21.4-10.5,34.6-10.5
	c19.5,0,34.8,6.3,46,18.9c11.2,12.6,16.8,30.1,16.8,52.5C973.6,223,967.4,239.9,955.1,252.8z"/>
<path class="st0" d="M1265.3,155.4c-5.9-14.5-14.2-26.9-24.9-37.4c-10.8-10.4-23.5-18.5-38.3-24.3c-14.8-5.7-30.8-8.6-48-8.6
	c-17.2,0-33.2,2.9-48,8.6c-14.8,5.8-27.5,13.9-38.3,24.3c-10.8,10.5-19,23-24.7,37.4c-5.7,14.5-8.6,29.9-8.6,46.2
	c0,16.3,2.9,31.7,8.8,46c5.9,14.4,14.2,26.8,24.9,37.2c10.8,10.5,23.5,18.6,38.3,24.3c14.8,5.7,30.6,8.6,47.5,8.6
	c17.2,0,33.2-2.9,48-8.6c14.8-5.7,27.5-13.8,38.3-24.3c10.8-10.4,19.1-22.8,24.9-37.2c5.9-14.3,8.8-29.7,8.8-46
	C1274.1,185.2,1271.1,169.8,1265.3,155.4z M1204.2,252.8c-12.8,12.9-29.5,19.4-50.1,19.4c-20.1,0-36.6-6.7-49.5-20
	c-12.9-13.3-19.4-30.2-19.4-50.5c0-21.5,6.5-38.7,19.6-51.6c13-12.9,29.5-19.4,49.3-19.4c14.6,0,27.6,3.8,38.9,11.2
	c11.3,7.5,19.2,16.7,23.7,27.5c4.4,10.9,6.7,21.7,6.7,32.3C1223.3,222.8,1217,239.9,1204.2,252.8z"/>
<path class="st0" d="M1292.2-0.1v314h49v-314H1292.2z"/>
<path class="st0" d="M1369.6-0.1v314h49v-314H1369.6z"/>
<path class="st0" d="M1669.8,155.4c-5.9-14.5-14.2-26.9-24.9-37.4c-10.8-10.4-23.5-18.5-38.3-24.3c-14.8-5.7-30.8-8.6-48-8.6
	c-17.2,0-33.2,2.9-48,8.6c-14.8,5.8-27.5,13.9-38.3,24.3c-10.8,10.5-19,23-24.7,37.4c-5.7,14.5-8.6,29.9-8.6,46.2
	c0,16.3,2.9,31.7,8.8,46c5.9,14.4,14.2,26.8,24.9,37.2c10.8,10.5,23.5,18.6,38.3,24.3c14.8,5.7,30.6,8.6,47.5,8.6
	c17.2,0,33.2-2.9,48-8.6c14.8-5.7,27.5-13.8,38.3-24.3c10.8-10.4,19.1-22.8,24.9-37.2c5.9-14.3,8.8-29.7,8.8-46
	C1678.6,185.2,1675.7,169.8,1669.8,155.4z M1608.7,252.8c-12.8,12.9-29.5,19.4-50.1,19.4c-20.1,0-36.6-6.7-49.5-20
	c-12.9-13.3-19.4-30.2-19.4-50.5c0-21.5,6.5-38.7,19.6-51.6c13-12.9,29.5-19.4,49.3-19.4c14.6,0,27.6,3.8,38.9,11.2
	c11.3,7.5,19.2,16.7,23.7,27.5c4.4,10.9,6.7,21.7,6.7,32.3C1627.9,222.8,1621.5,239.9,1608.7,252.8z"/>
<polygon class="st0" points="470,315.4 321,315.4 244.6,155 316.2,15.4 "/>
<path class="st0" d="M229.4,315.4H0.4L158.3,15.7c0.8-1.5,2.3-2.4,3.9-2.4h123.3l-61.1,116c0,0-20.4,34-47.7,90.6
	c-17.9,37,29.2,71.4,55.1,86.9C235.8,309.2,234.1,315.4,229.4,315.4z"/>
</svg>
